<?xml version="1.0" encoding="UTF-8"?>
<svg width="74px" height="74px" viewBox="0 0 74 74" version="1.1" xmlns="http://www.w3.org/2000/svg" xmlns:xlink="http://www.w3.org/1999/xlink">
    <title>Group</title>
    <g id="Page-1" stroke="none" stroke-width="1" fill="none" fill-rule="evenodd">
        <g id="Artboard" transform="translate(-979, -1780)">
            <g id="Group" transform="translate(979, 1780)">
                <path d="M37,74 C57.4345357,74 74,57.4345357 74,37 C74,16.5654643 57.4345357,0 37,0 C16.5654643,0 0,16.5654643 0,37 C0,43.2475657 0,55.5808991 0,74 C17.2912086,74 29.6245419,74 37,74 Z" id="Oval-2" fill="#27272A"></path>
                <path d="M14.2360587,28.523386 C14.8407804,28.3065246 15.6974402,28.5111121 16.8060381,29.1371486 L31.6895174,36.6911735 C32.7121404,37.3246821 33.5130953,38.0602757 34.092382,38.8979542 C34.6716687,39.7356327 35.0373002,40.6869833 35.1892765,41.752006 L35.1892765,58.0967763 C34.9876031,59.062133 34.6219716,59.6574362 34.092382,59.8826861 C33.5627923,60.1079359 32.7618375,60.0088158 31.6895174,59.5853256 L15.6309489,51.3538726 C14.8826474,50.8724146 14.2887993,50.2590493 13.8494047,49.5137768 C13.4100101,48.7685043 13.1268752,47.8943881 13,46.8914282 L13,30.5020461 C13.2193175,29.3998009 13.6313371,28.7402475 14.2360587,28.523386 Z M59.7639413,28.523386 C60.3686629,28.7402475 60.7806825,29.3998009 61,30.5020461 L61,46.8914282 C60.8731248,47.8943881 60.5899899,48.7685043 60.1505953,49.5137768 C59.7112007,50.2590493 59.1173526,50.8724146 58.3690511,51.3538726 L42.3104826,59.5853256 C41.2381625,60.0088158 40.4372077,60.1079359 39.907618,59.8826861 C39.3780284,59.6574362 39.0123969,59.062133 38.8107235,58.0967763 L38.8107235,41.752006 C38.9626998,40.6869833 39.3283313,39.7356327 39.907618,38.8979542 C40.4869047,38.0602757 41.2878596,37.3246821 42.3104826,36.6911735 L57.1939619,29.1371486 C58.3025598,28.5111121 59.1592196,28.3065246 59.7639413,28.523386 Z M37.3054658,14.000022 C38.101094,13.9982038 38.8966316,14.1092524 39.6920785,14.3331678 L55.8810254,22.6303627 C56.7765293,23.1545604 57.2223156,23.6827147 57.2183845,24.2148256 C57.2144533,24.7469364 56.7608312,25.2794201 55.8575181,25.8122767 L39.6707793,34.1283341 C38.8922614,34.3545613 38.0983453,34.4660039 37.289031,34.4626622 C36.4797168,34.4593204 35.6704947,34.3412582 34.8613647,34.1084755 L18.6974404,25.8241052 C17.816291,25.2973576 17.3758489,24.7711955 17.3761141,24.245619 C17.3763793,23.7200424 17.817352,23.1948037 18.6990322,22.6699028 L34.9047245,14.3441078 C35.7095905,14.1165354 36.5098376,14.0018401 37.3054658,14.000022 Z" id="Combined-Shape" fill="#FFFFFF"></path>
            </g>
        </g>
    </g>
</svg>