<svg width="18" height="18" viewBox="0 0 18 18" fill="none" xmlns="http://www.w3.org/2000/svg">
<g clip-path="url(#clip0_1128353_2547)">
<rect x="0.5" y="0.5" width="17" height="17" rx="2.5" stroke="black"/>
<path d="M9 2C8.08075 2 7.17049 2.18556 6.32122 2.54607C5.47194 2.90659 4.70026 3.43501 4.05025 4.10115C2.7375 5.4465 2 7.27118 2 9.17379C2 12.3446 4.009 15.0348 6.788 15.9889C7.138 16.0463 7.25 15.8239 7.25 15.6302V14.4178C5.311 14.8483 4.898 13.4565 4.898 13.4565C4.576 12.6244 4.121 12.402 4.121 12.402C3.484 11.9572 4.17 11.9716 4.17 11.9716C4.87 12.0218 5.241 12.7105 5.241 12.7105C5.85 13.8009 6.879 13.4781 7.278 13.3059C7.341 12.8396 7.523 12.5239 7.719 12.3446C6.165 12.1653 4.534 11.5483 4.534 8.8151C4.534 8.01881 4.8 7.38034 5.255 6.871C5.185 6.69166 4.94 5.94558 5.325 4.97712C5.325 4.97712 5.913 4.78343 7.25 5.70885C7.803 5.55103 8.405 5.47211 9 5.47211C9.595 5.47211 10.197 5.55103 10.75 5.70885C12.087 4.78343 12.675 4.97712 12.675 4.97712C13.06 5.94558 12.815 6.69166 12.745 6.871C13.2 7.38034 13.466 8.01881 13.466 8.8151C13.466 11.5555 11.828 12.1581 10.267 12.3374C10.519 12.5598 10.75 12.9974 10.75 13.6646V15.6302C10.75 15.8239 10.862 16.0535 11.219 15.9889C13.998 15.0276 16 12.3446 16 9.17379C16 8.23171 15.8189 7.29886 15.4672 6.4285C15.1154 5.55813 14.5998 4.7673 13.9497 4.10115C13.2997 3.43501 12.5281 2.90659 11.6788 2.54607C10.8295 2.18556 9.91925 2 9 2Z" fill="black"/>
</g>
<defs>
<clipPath id="clip0_1128353_2547">
<rect width="18" height="18" fill="white"/>
</clipPath>
</defs>
</svg>
