<svg width="18" height="18" viewBox="0 0 18 18" fill="none" xmlns="http://www.w3.org/2000/svg">
<g clip-path="url(#clip0_1128353_2539)">
<rect x="0.5" y="0.5" width="17" height="17" rx="2.5" stroke="currentColor"/>
<path d="M5.51836 4.33393C5.5182 4.68753 5.38537 5.02658 5.14911 5.27649C4.91285 5.5264 4.59251 5.6667 4.25855 5.66652C3.9246 5.66634 3.60438 5.5257 3.36836 5.27554C3.13234 5.02539 2.99983 4.6862 3 4.33259C3.00017 3.97899 3.13299 3.63994 3.36925 3.39003C3.60551 3.14012 3.92586 2.99982 4.25981 3C4.59377 3.00018 4.91398 3.14081 5.15 3.39097C5.38603 3.64113 5.51853 3.98032 5.51836 4.33393ZM5.55614 6.6538H3.03778V15H5.55614V6.6538ZM9.53515 6.6538H7.02938V15H9.50997V10.6202C9.50997 8.18038 12.5131 7.95373 12.5131 10.6202V15H15V9.71363C15 5.60052 10.5551 5.75385 9.50997 7.77374L9.53515 6.6538Z" fill="currentColor"/>
</g>
<defs>
<clipPath id="clip0_1128353_2539">
<rect width="18" height="18" fill="white"/>
</clipPath>
</defs>
</svg>
